<svg width="157" height="60" viewBox="0 0 157 60" fill="none" xmlns="http://www.w3.org/2000/svg">
  <g clip-path="url(#clip0_99_83)">
    <path
      d="M51.562 29.994C59.0773 25.3095 61.426 15.3365 56.8053 7.71756C52.1846 0.0956621 42.3472 -2.28244 34.832 2.39898C30.1021 5.34544 27.2194 10.5743 27.2223 16.2039V43.784C27.2223 50.0628 22.2033 55.151 16.01 55.151C9.81661 55.151 4.7976 50.0628 4.7976 43.784C4.7976 37.5052 9.81661 32.4169 16.01 32.4169H22.5426C22.5426 30.3918 20.9582 27.5979 16.6148 27.5979H15.9155C7.08728 27.6368 -0.0355202 34.9177 -0.000112703 43.8677C0.0352948 52.8148 7.22006 60.0388 16.0454 60.0029C21.5778 59.979 26.706 57.0565 29.6005 52.2733C34.2094 59.8952 44.0409 62.2853 51.562 57.6129C59.0832 52.9404 61.4378 42.9733 56.8289 35.3484C55.5129 33.1707 53.7071 31.34 51.5591 30.0059V29.994H51.562ZM31.9817 16.2039C31.9817 9.92516 37.0007 4.83691 43.1941 4.83691C49.3874 4.83691 54.4064 9.92516 54.4064 16.2039C54.4064 22.4827 49.3874 27.571 43.1941 27.571H31.9817V16.2039ZM43.1941 55.163C37.0066 55.151 31.9935 50.0687 31.9817 43.7959V32.4289H43.1941C49.3933 32.4289 54.4182 37.5231 54.4182 43.8079C54.4182 50.0927 49.3933 55.1869 43.1941 55.1869V55.166V55.163Z"
      fill="#FD4F1E" />
    <path
      d="M126.915 26.4583C127.552 25.2946 127.871 23.9815 127.842 22.6533C127.859 21.2504 127.526 19.8624 126.871 18.627C125.369 15.9348 122.235 14.3763 117.913 14.3763H103.402V45.6955H117.898C122.221 45.6955 125.354 44.131 126.856 41.4448C127.511 40.2094 127.845 38.8214 127.827 37.4185C127.862 36.0903 127.547 34.7801 126.915 33.6165C125.9 31.7798 124.047 30.6641 121.442 30.4397V29.6321C124.032 29.3658 125.885 28.28 126.915 26.4583ZM121.663 34.2866C122.035 34.9716 122.218 35.7433 122.194 36.5241C122.235 37.3168 122.067 38.1035 121.707 38.8065C120.914 40.1047 119.412 40.8406 117.249 40.8406H108.784V32.408H117.234C119.353 32.408 120.899 32.9883 121.648 34.2866H121.663ZM117.237 27.6339H108.784V19.2342H117.234C119.397 19.2342 120.899 19.9701 121.693 21.2653C122.052 21.9683 122.221 22.755 122.179 23.5477C122.203 24.3285 122.02 25.1002 121.648 25.7852C120.899 27.0835 119.353 27.6339 117.234 27.6339H117.237Z"
      fill="#00383D" />
    <path
      d="M156.717 19.2312V14.3763H134.938V45.6955H140.314V32.414H147.056C151.361 32.414 152.931 29.644 152.931 27.6279H140.314V19.2312H156.717Z"
      fill="#00383D" />
    <path
      d="M81.6259 14.3763V19.2312H89.9378V35.3844C89.9378 38.6629 87.3147 41.3222 84.0808 41.3222C80.847 41.3222 78.2239 38.6629 78.2239 35.3844C78.2062 34.3793 78.3448 33.3742 78.6399 32.414H73.2137C71.8977 38.5253 75.7188 44.5588 81.7469 45.8929C87.775 47.227 93.7264 43.3533 95.0424 37.242C95.2165 36.4314 95.3021 35.6057 95.2991 34.7771V14.3763H81.6259Z"
      fill="#00383D" />
  </g>
  <defs>
    <clipPath id="clip0_99_83">
      <rect width="156.716" height="60" fill="white" />
    </clipPath>
  </defs>
</svg>
