<svg fill="none" height="30" viewBox="0 0 30 30" width="30" xmlns="http://www.w3.org/2000/svg">
  <path
    d="M26.9 10.1L25.7 3.6C25.5 2.6 24.9 1.6 24.1 1C23.3 0.3 22.2 0 21.1 0H8.9C7.8 0 6.8 0.3 5.9 1C5.1 1.6 4.6 2.6 4.3 3.6L3.1 10.1C2.2 10.3 1.4 10.8 0.8 11.5C0.3 12.2 0 13.1 0 14V22C0 22.9 0.3 23.7 0.8 24.4C1.3 25.1 2.1 25.6 3 25.8V28C3 28.5 3.2 29 3.6 29.4C4 29.8 4.5 30 5 30C5.5 30 6 29.8 6.4 29.4C6.8 29 7 28.5 7 28V26H23V28C23 28.5 23.2 29 23.6 29.4C24 29.8 24.5 30 25 30C25.5 30 26 29.8 26.4 29.4C26.8 29 27 28.5 27 28V25.9C27.9 25.7 28.6 25.2 29.2 24.5C29.7 23.8 30 22.9 30 22.1V14.1C30 13.2 29.7 12.3 29.1 11.6C28.5 10.8 27.7 10.3 26.9 10.1ZM6.3 4C6.4 3.4 6.8 2.9 7.3 2.5C7.7 2.2 8.3 2 8.9 2H21C21.6 2 22.2 2.2 22.7 2.5C23.2 2.9 23.5 3.4 23.7 4L24.8 10H5.2L6.3 4ZM9 18H5V16C5 15.5 5.2 15 5.6 14.6C6 14.2 6.5 14 7 14C7.5 14 8 14.2 8.4 14.6C8.8 15 9 15.5 9 16V18ZM25 18H21V16C21 15.5 21.2 15 21.6 14.6C22 14.2 22.5 14 23 14C23.5 14 24 14.2 24.4 14.6C24.8 15 25 15.5 25 16V18Z"
    fill="currentColor" />
</svg>
