<svg fill="none" height="36" viewBox="0 0 36 36" width="36" xmlns="http://www.w3.org/2000/svg">
  <path
    d="M10.3041 17.2523C9.72512 16.4606 8.61435 16.2715 7.82263 16.8505C7.03092 17.4296 6.84185 18.5403 7.42087 19.332L12.9747 27.0129C13.2938 27.4501 13.7901 27.7219 14.3336 27.7455H14.4163C14.9245 27.7455 15.4089 27.5328 15.7516 27.1547L35.001 5.28202C35.6509 4.54939 35.5918 3.42681 34.8592 2.77689C34.1265 2.12697 33.004 2.18606 32.354 2.91869L14.5581 23.137L10.3041 17.2523Z"
    fill="currentColor" />
  <path
    d="M35.0953 14.1561C34.9653 13.518 34.339 13.1045 33.7009 13.2344C33.0628 13.3644 32.6492 13.9907 32.7792 14.6288C32.9801 15.645 33.0864 16.6731 33.0864 17.7011C33.0864 26.1855 26.2091 33.0628 17.7248 33.0628C9.24038 33.0628 2.36308 26.1855 2.36308 17.7011C2.36308 9.21677 9.24038 2.33947 17.7248 2.33947C20.5135 2.33947 23.2431 3.09574 25.6301 4.52555C26.1382 4.92732 26.8827 4.8446 27.2844 4.32467C27.6862 3.81655 27.6035 3.0721 27.0835 2.67034C27.0008 2.59944 26.9063 2.55217 26.7999 2.5049C18.4101 -2.50536 7.52697 0.236104 2.50488 8.63775C-2.50539 17.0512 0.236081 27.9226 8.63773 32.9446C17.0394 37.9667 27.9225 35.2134 32.9446 26.8118C34.5871 24.0585 35.4497 20.9153 35.4497 17.7011C35.4497 16.5077 35.3316 15.326 35.0953 14.1561Z"
    fill="currentColor" />
</svg>
