<svg fill="none" height="32" viewBox="0 0 43 32" width="43" xmlns="http://www.w3.org/2000/svg">
  <path
    d="M37.2667 0H5.73333C4.21276 0 2.75446 0.612985 1.67925 1.70411C0.604046 2.79523 0 4.2751 0 5.81818V26.1818C0 27.7249 0.604046 29.2048 1.67925 30.2959C2.75446 31.387 4.21276 32 5.73333 32H37.2667C38.7872 32 40.2455 31.387 41.3207 30.2959C42.396 29.2048 43 27.7249 43 26.1818V5.81818C43 4.2751 42.396 2.79523 41.3207 1.70411C40.2455 0.612985 38.7872 0 37.2667 0ZM37.2667 2.90909C37.8706 2.91419 38.4575 3.11272 38.9437 3.47636L23.349 16.8727C22.8318 17.3157 22.1768 17.5587 21.5 17.5587C20.8232 17.5587 20.1682 17.3157 19.651 16.8727L4.05633 3.47636C4.54249 3.11272 5.1294 2.91419 5.73333 2.90909H37.2667ZM37.2667 29.0909H5.73333C4.97305 29.0909 4.2439 28.7844 3.70629 28.2389C3.16869 27.6933 2.86667 26.9534 2.86667 26.1818V6.26909L17.802 19.0836C18.8364 19.9696 20.1464 20.4557 21.5 20.4557C22.8536 20.4557 24.1636 19.9696 25.198 19.0836L40.1333 6.26909V26.1818C40.1333 26.9534 39.8313 27.6933 39.2937 28.2389C38.7561 28.7844 38.027 29.0909 37.2667 29.0909Z"
    fill="currentColor" />
</svg>
