<svg fill="none" height="18" viewBox="0 0 18 18" width="18" xmlns="http://www.w3.org/2000/svg">
  <path
    d="M10.3125 12.6184C10.1062 12.8246 9.80624 12.8621 9.56249 12.7121C8.73749 12.2059 7.93124 11.5684 7.18124 10.8184C6.43124 10.0871 5.81249 9.28086 5.30624 8.43711C5.15624 8.19336 5.19374 7.89336 5.38124 7.68711L7.16249 5.92461C7.29374 5.79336 7.38749 5.62461 7.38749 5.43711C7.38749 5.30586 7.34999 5.21211 7.29374 5.09961L5.00624 0.93711C4.89374 0.73086 4.70624 0.599609 4.46249 0.599609C3.44999 0.693359 2.30624 1.03086 1.64999 1.68711C-0.675007 4.01211 0.768743 9.26211 4.74374 13.2559C7.40624 15.9184 10.5937 17.3996 13.125 17.3996C14.3625 17.3996 15.45 17.0246 16.2187 16.2559C16.8937 15.5996 17.325 14.5684 17.4 13.5371C17.4 13.2934 17.2687 13.0871 17.0625 12.9746L12.9 10.8746C12.9 10.8746 12.6937 10.7621 12.5812 10.7621C12.375 10.7621 12.2062 10.8559 12.0937 11.0059L10.3125 12.6184Z"
    fill="currentColor" />
</svg>
